<svg xmlns:ed="https://www.edrawsoft.cn/xml/2017/SVGExtensions/" viewBox="0 0 1133 804" height="804" xmlns="http://www.w3.org/2000/svg" xmlns:xlink="http://www.w3.org/1999/xlink" width="1133" xmlns:ev="http://www.w3.org/2001/xml-events"><defs><linearGradient y2="0%" x2="0%" y1="0%" x1="100%" id="lg1"><stop offset="0.00" stop-opacity="0.00" stop-color="#ffffff"/><stop offset="0.49" stop-opacity="0.30" stop-color="#ffffff"/><stop offset="0.77" stop-opacity="0.35" stop-color="#ffffff"/><stop offset="0.90" stop-opacity="0.30" stop-color="#ffffff"/><stop offset="1.00" stop-opacity="0.00" stop-color="#ffffff"/></linearGradient></defs><g ed:name="Page-1" transform="translate(5.5,5.5)" id="page1"><rect stroke="#808080" height="794" x="0" fill="#ffffff" y="0" width="1123"/><g transform="translate(283.000000,342.000000)" id="group1"><path d="M.0,.0L59.1,31.5L59.1,45.2L.0,13.7L.0,.0z" stroke="#d6d8df" fill-rule="nonzero" fill="#d6d8df" stroke-width="0.5" transform="translate(0.000000,28.827513)" id="shape2"/><path d="M.0,.0L51.7,27.8" stroke="#000000" stroke-dasharray="3.8,1.2" fill="none" stroke-width="1" transform="translate(0.235368,36.363594)" id="shape3"/><path d="M.0,.0L11.6,6.1L11.6,12.4L.0,6.1L.0,.0z" stroke="#ffffff" fill-rule="nonzero" fill="#ffffff" stroke-width="1" transform="translate(22.795597,45.405914)" id="shape4"/><path d="M.0,.0L54.9,28.9L54.9,42.6L.0,13.7L.0,.0z" stroke="#caccd3" fill-rule="nonzero" fill="#caccd3" stroke-width="0.5" transform="matrix(-1.000000,0.000000,0.000000,1.000000,114.000000,31.384791)" id="shape5"/><path d="M59.1,60.3L.0,28.8L54.9,.0L114.0,31.4L59.1,60.3z" stroke="#e2e4e9" fill-rule="nonzero" fill="#e2e4e9" stroke-width="0.5" transform="translate(0.000000,-0.000000)" id="shape6"/><path d="M.0,.0L10.5,5.6L10.5,10.4L.0,4.7L.0,.0z" stroke="#62bc85" fill-rule="nonzero" fill="#62bc85" stroke-width="1" transform="translate(23.279466,46.396225)" id="shape7"/><path d="M.0,3.6C-0.1,1.7,.9,.1,2.3,.0C3.8,-0.1,5.1,1.3,5.2,3.1C5.4,5.0,4.4,6.6,2.9,6.7C1.5,6.9,.2,5.5,.0,3.6z" stroke="#e85464" fill-rule="nonzero" fill="#e85464" stroke-width="0.25" transform="matrix(0.999391,-0.034899,0.034899,0.999391,50.295354,60.721397)" id="shape8"/><path d="M.0,2.9C-0.1,1.4,.7,.1,1.9,.0C3.0,-0.1,4.1,1.0,4.2,2.5C4.3,4.0,3.5,5.3,2.3,5.4C1.2,5.5,.1,4.4,.0,2.9z" stroke="#ff7878" fill-rule="nonzero" fill="#ff7878" stroke-width="0.4799999892711639" transform="matrix(0.999391,-0.034899,0.034899,0.999391,50.851627,61.384603)" id="shape9"/><path d="M.0,2.4C-0.1,1.4,.3,.5,.9,.0C.9,.0,3.4,4.4,3.4,4.4C3.1,4.7,2.8,4.9,2.4,5.0C1.2,5.1,.2,3.9,.0,2.4z" fill-rule="nonzero" fill="#ffffff" fill-opacity="0.12" transform="matrix(0.999391,-0.034899,0.034899,0.999391,50.841374,61.805929)" id="shape10"/><path d="M.0,.0L10.1,5.2L10.1,9.6L.0,4.3L.0,.0z" fill-rule="nonzero" fill="#ffffff" fill-opacity="0.29" transform="translate(23.524007,46.792945)" id="shape11"/><text style="fill:#191919;font-family:Arial;font-size:12.00pt" xml:space="preserve"><tspan x="49.1" y="92.5">10</tspan></text></g><g transform="translate(679.000000,342.000000)" id="group12"><path d="M.0,.0L59.1,31.5L59.1,45.2L.0,13.7L.0,.0z" stroke="#d6d8df" fill-rule="nonzero" fill="#d6d8df" stroke-width="0.5" transform="translate(0.000000,28.827600)" id="shape13"/><path d="M.0,.0L51.7,27.8" stroke="#000000" stroke-dasharray="3.8,1.2" fill="none" stroke-width="1" transform="translate(0.235300,36.363600)" id="shape14"/><path d="M.0,.0L11.6,6.1L11.6,12.4L.0,6.1L.0,.0z" stroke="#ffffff" fill-rule="nonzero" fill="#ffffff" stroke-width="1" transform="translate(22.795630,45.405940)" id="shape15"/><path d="M.0,.0L54.9,28.9L54.9,42.6L.0,13.7L.0,.0z" stroke="#caccd3" fill-rule="nonzero" fill="#caccd3" stroke-width="0.5" transform="matrix(-1.000000,0.000000,0.000000,1.000000,114.000000,31.384800)" id="shape16"/><path d="M59.1,60.3L.0,28.8L54.9,.0L114.0,31.4L59.1,60.3z" stroke="#e2e4e9" fill-rule="nonzero" fill="#e2e4e9" stroke-width="0.5" id="shape17"/><path d="M.0,.0L10.5,5.6L10.5,10.4L.0,4.7L.0,.0z" stroke="#62bc85" fill-rule="nonzero" fill="#62bc85" stroke-width="1" transform="translate(23.279500,46.396250)" id="shape18"/><path d="M.0,3.6C-0.1,1.7,.9,.1,2.3,.0C3.8,-0.1,5.1,1.3,5.2,3.1C5.4,5.0,4.4,6.6,2.9,6.7C1.5,6.9,.2,5.5,.0,3.6z" stroke="#e85464" fill-rule="nonzero" fill="#e85464" stroke-width="0.25" transform="matrix(0.999391,-0.034899,0.034899,0.999391,50.295377,60.721413)" id="shape19"/><path d="M.0,2.9C-0.1,1.4,.7,.1,1.9,.0C3.0,-0.1,4.1,1.0,4.2,2.5C4.3,4.0,3.5,5.3,2.3,5.4C1.2,5.5,.1,4.4,.0,2.9z" stroke="#ff7878" fill-rule="nonzero" fill="#ff7878" stroke-width="0.4799999892711639" transform="matrix(0.999391,-0.034899,0.034899,0.999391,50.851654,61.384574)" id="shape20"/><path d="M.0,2.4C-0.1,1.4,.3,.5,.9,.0C.9,.0,3.4,4.4,3.4,4.4C3.1,4.7,2.8,4.9,2.4,5.0C1.2,5.1,.2,3.9,.0,2.4z" fill-rule="nonzero" fill="#ffffff" fill-opacity="0.12" transform="matrix(0.999391,-0.034899,0.034899,0.999391,50.841332,61.805884)" id="shape21"/><path d="M.0,.0L10.1,5.2L10.1,9.6L.0,4.3L.0,.0z" fill-rule="nonzero" fill="#ffffff" fill-opacity="0.29" transform="translate(23.524040,46.792930)" id="shape22"/><text style="fill:#191919;font-family:Arial;font-size:12.00pt" xml:space="preserve"><tspan x="49.1" y="92.5">12</tspan></text></g><g transform="translate(547.000000,342.000000)" id="group23"><path d="M.0,.0L59.1,31.5L59.1,45.2L.0,13.7L.0,.0z" stroke="#d6d8df" fill-rule="nonzero" fill="#d6d8df" stroke-width="0.5" transform="translate(0.000000,28.827600)" id="shape24"/><path d="M.0,.0L51.7,27.8" stroke="#000000" stroke-dasharray="3.8,1.2" fill="none" stroke-width="1" transform="translate(0.235300,36.363600)" id="shape25"/><path d="M.0,.0L11.6,6.1L11.6,12.4L.0,6.1L.0,.0z" stroke="#ffffff" fill-rule="nonzero" fill="#ffffff" stroke-width="1" transform="translate(22.795630,45.405940)" id="shape26"/><path d="M.0,.0L54.9,28.9L54.9,42.6L.0,13.7L.0,.0z" stroke="#caccd3" fill-rule="nonzero" fill="#caccd3" stroke-width="0.5" transform="matrix(-1.000000,0.000000,0.000000,1.000000,114.000000,31.384800)" id="shape27"/><path d="M59.1,60.3L.0,28.8L54.9,.0L114.0,31.4L59.1,60.3z" stroke="#e2e4e9" fill-rule="nonzero" fill="#e2e4e9" stroke-width="0.5" id="shape28"/><path d="M.0,.0L10.5,5.6L10.5,10.4L.0,4.7L.0,.0z" stroke="#62bc85" fill-rule="nonzero" fill="#62bc85" stroke-width="1" transform="translate(23.279500,46.396250)" id="shape29"/><path d="M.0,3.6C-0.1,1.7,.9,.1,2.3,.0C3.8,-0.1,5.1,1.3,5.2,3.1C5.4,5.0,4.4,6.6,2.9,6.7C1.5,6.9,.2,5.5,.0,3.6z" stroke="#e85464" fill-rule="nonzero" fill="#e85464" stroke-width="0.25" transform="matrix(0.999391,-0.034899,0.034899,0.999391,50.295377,60.721413)" id="shape30"/><path d="M.0,2.9C-0.1,1.4,.7,.1,1.9,.0C3.0,-0.1,4.1,1.0,4.2,2.5C4.3,4.0,3.5,5.3,2.3,5.4C1.2,5.5,.1,4.4,.0,2.9z" stroke="#ff7878" fill-rule="nonzero" fill="#ff7878" stroke-width="0.4799999892711639" transform="matrix(0.999391,-0.034899,0.034899,0.999391,50.851654,61.384574)" id="shape31"/><path d="M.0,2.4C-0.1,1.4,.3,.5,.9,.0C.9,.0,3.4,4.4,3.4,4.4C3.1,4.7,2.8,4.9,2.4,5.0C1.2,5.1,.2,3.9,.0,2.4z" fill-rule="nonzero" fill="#ffffff" fill-opacity="0.12" transform="matrix(0.999391,-0.034899,0.034899,0.999391,50.841332,61.805884)" id="shape32"/><path d="M.0,.0L10.1,5.2L10.1,9.6L.0,4.3L.0,.0z" fill-rule="nonzero" fill="#ffffff" fill-opacity="0.29" transform="translate(23.524040,46.792930)" id="shape33"/><text style="fill:#191919;font-family:Arial;font-size:12.00pt" xml:space="preserve"><tspan x="49.1" y="92.5">12</tspan></text></g><g transform="translate(415.000000,342.000000)" id="group34"><path d="M.0,.0L59.1,31.5L59.1,45.2L.0,13.7L.0,.0z" stroke="#d6d8df" fill-rule="nonzero" fill="#d6d8df" stroke-width="0.5" transform="translate(0.000000,28.827600)" id="shape35"/><path d="M.0,.0L51.7,27.8" stroke="#000000" stroke-dasharray="3.8,1.2" fill="none" stroke-width="1" transform="translate(0.235300,36.363600)" id="shape36"/><path d="M.0,.0L11.6,6.1L11.6,12.4L.0,6.1L.0,.0z" stroke="#ffffff" fill-rule="nonzero" fill="#ffffff" stroke-width="1" transform="translate(22.795630,45.405940)" id="shape37"/><path d="M.0,.0L54.9,28.9L54.9,42.6L.0,13.7L.0,.0z" stroke="#caccd3" fill-rule="nonzero" fill="#caccd3" stroke-width="0.5" transform="matrix(-1.000000,0.000000,0.000000,1.000000,114.000000,31.384800)" id="shape38"/><path d="M59.1,60.3L.0,28.8L54.9,.0L114.0,31.4L59.1,60.3z" stroke="#e2e4e9" fill-rule="nonzero" fill="#e2e4e9" stroke-width="0.5" id="shape39"/><path d="M.0,.0L10.5,5.6L10.5,10.4L.0,4.7L.0,.0z" stroke="#62bc85" fill-rule="nonzero" fill="#62bc85" stroke-width="1" transform="translate(23.279500,46.396250)" id="shape40"/><path d="M.0,3.6C-0.1,1.7,.9,.1,2.3,.0C3.8,-0.1,5.1,1.3,5.2,3.1C5.4,5.0,4.4,6.6,2.9,6.7C1.5,6.9,.2,5.5,.0,3.6z" stroke="#e85464" fill-rule="nonzero" fill="#e85464" stroke-width="0.25" transform="matrix(0.999391,-0.034899,0.034899,0.999391,50.295377,60.721413)" id="shape41"/><path d="M.0,2.9C-0.1,1.4,.7,.1,1.9,.0C3.0,-0.1,4.1,1.0,4.2,2.5C4.3,4.0,3.5,5.3,2.3,5.4C1.2,5.5,.1,4.4,.0,2.9z" stroke="#ff7878" fill-rule="nonzero" fill="#ff7878" stroke-width="0.4799999892711639" transform="matrix(0.999391,-0.034899,0.034899,0.999391,50.851654,61.384574)" id="shape42"/><path d="M.0,2.4C-0.1,1.4,.3,.5,.9,.0C.9,.0,3.4,4.4,3.4,4.4C3.1,4.7,2.8,4.9,2.4,5.0C1.2,5.1,.2,3.9,.0,2.4z" fill-rule="nonzero" fill="#ffffff" fill-opacity="0.12" transform="matrix(0.999391,-0.034899,0.034899,0.999391,50.841332,61.805884)" id="shape43"/><path d="M.0,.0L10.1,5.2L10.1,9.6L.0,4.3L.0,.0z" fill-rule="nonzero" fill="#ffffff" fill-opacity="0.29" transform="translate(23.524040,46.792930)" id="shape44"/></g><g transform="translate(869.000000,313.000000)" id="group45"><g transform="translate(46.650820,61.175155)" id="group46"><path d="M.0,20.9C.0,9.4,14.2,.0,31.7,.0C49.2,.0,63.3,9.4,63.3,20.9C63.3,32.5,49.2,41.9,31.7,41.9C14.2,41.9,.0,32.5,.0,20.9z" stroke="#9e9f9f" fill-rule="nonzero" fill="#9e9f9f" stroke-width="1" transform="translate(0.000000,2.896910)" id="shape47"/><path d="M.0,21.9C.0,9.8,14.2,.0,31.7,.0C49.2,.0,63.3,9.8,63.3,21.9C63.3,34.0,49.2,43.8,31.7,43.8C14.2,43.8,.0,34.0,.0,21.9z" stroke="#d6d8df" fill-rule="nonzero" fill="#d6d8df" stroke-width="0.5" transform="translate(0.000000,-0.000000)" id="shape48"/><path d="M.0,.0C.0,.0,2.6,6.3,8.3,18.5C10.9,24.2,16.4,30.6,16.4,30.6C16.4,30.6,21.7,29.2,27.9,24.9C37.2,18.6,.0,-1.1,.0,.0z" fill-rule="nonzero" fill="#ffffff" fill-opacity="0.22" transform="translate(27.293343,11.839656)" id="shape49"/></g><g transform="translate(67.040441,75.301757)" id="group50"><path d="M.0,.0L8.4,4.6L8.4,14.4L.0,9.8L.0,.0z" stroke="#eaecf3" fill-rule="nonzero" fill="#eaecf3" stroke-width="0.5" transform="translate(0.000000,2.110661)" id="shape51"/><path d="M8.4,6.7L.0,2.1L4.0,.0L12.5,4.6L8.4,6.7z" stroke="#e2e4e9" fill-rule="nonzero" fill="#e2e4e9" stroke-width="0.5" transform="translate(0.000000,0.000000)" id="shape52"/><path d="M.0,.0L4.0,2.1L4.0,11.9L.0,9.8L.0,.0z" stroke="#caccd3" fill-rule="nonzero" fill="#caccd3" stroke-width="0.5" transform="matrix(-1.000000,0.000000,0.000000,1.000000,12.466584,4.613894)" id="shape53"/></g><path d="M12.7,1.3C6.9,-1.9,.0,1.2,.0,6.2C.0,11.7,63.7,34.2,66.9,36.1C70.0,36.1,73.5,44.9,73.5,39.6C73.5,34.3,71.4,31.1,68.1,28.8C64.5,26.2,17.4,3.7,12.7,1.3z" stroke="#e2e4e9" fill-rule="nonzero" fill="#e2e4e9" stroke-width="0.5" transform="translate(34.944257,-0.000000)" id="shape54"/><path d="M6.5,4.5C6.5,10.0,-2.5,66.5,.7,68.5C3.8,68.5,13.0,68.2,13.0,63.1C13.0,58.5,13.0,13.8,13.0,8.5C13.0,4.8,12.0,2.1,10.3,.0C9.3,-0.1,6.4,.7,6.5,4.5z" stroke="#caccd3" fill-rule="nonzero" fill="#caccd3" stroke-width="0.5" transform="translate(95.365695,31.138167)" id="shape55"/><path d="M7.8,1.2C1.9,-1.9,.0,1.2,.0,6.2C.0,11.7,.0,53.0,.0,56.9C.0,60.7,1.2,67.2,4.6,68.9C8.0,70.6,57.5,95.3,60.7,97.3C63.9,97.3,68.5,97.3,68.5,92.2C68.5,87.6,68.5,44.9,68.5,39.6C68.5,34.3,66.4,31.1,63.1,28.8C59.5,26.2,12.4,3.6,7.8,1.2z" stroke="#eaecf3" fill-rule="nonzero" fill="#eaecf3" stroke-width="0.5" transform="translate(34.686292,2.522146)" id="shape56"/><path d="M8.1,1.2C2.3,-1.9,.0,1.2,.0,6.2C.0,11.8,.0,44.1,.0,47.8C.0,51.7,1.2,58.2,4.6,59.8C8.0,61.5,50.5,83.4,53.7,85.3C57.4,87.3,61.8,85.3,61.8,80.2C61.8,75.7,61.8,41.2,61.8,36.7C61.8,31.4,59.7,28.2,56.5,25.9C52.8,23.3,12.8,3.7,8.1,1.2z" stroke="#5fb7f1" fill-rule="nonzero" fill="#5fb7f1" stroke-width="1" transform="translate(37.964991,8.334948)" id="shape57"/><path d="M8.1,1.2C2.3,-1.9,.0,1.2,.0,6.2C.0,11.8,.0,41.9,.0,46.1C.0,49.9,1.2,56.4,4.6,58.1C8.0,59.7,48.8,81.0,52.0,83.0C55.6,84.2,60.2,83.0,60.2,77.9C60.2,73.3,60.2,41.1,60.2,36.1C60.2,30.8,58.1,27.6,54.8,25.3C51.2,22.7,12.8,3.7,8.1,1.2z" fill-rule="nonzero" fill="#ffffff" fill-opacity="0.29" transform="translate(39.115267,9.774480)" id="shape58"/><path d="M.0,35.5C.0,35.5,.0,8.2,.0,4.5C.0,.7,3.4,-1.2,7.4,.7C11.4,2.7,37.5,15.5,37.5,15.5C37.5,15.5,22.1,14.3,12.8,20.0C3.5,25.6,.0,35.5,.0,35.5z" fill-rule="nonzero" fill="#ffffff" fill-opacity="0.28" transform="translate(38.083606,8.838059)" id="shape59"/><g transform="translate(0.000000,85.720882)" id="group60"><path d="M.0,12.1L59.2,43.7L82.7,31.5L23.0,.0L.0,12.1z" stroke="#bfc1c7" fill-rule="nonzero" fill="#bfc1c7" stroke-width="0.5" transform="translate(0.000000,-0.000000)" id="shape61"/><path d="M.0,.0L.0,2.5L59.4,34.2L59.4,31.6L.0,.0z" stroke="#d6d8df" fill-rule="nonzero" fill="#d6d8df" stroke-width="0.5" transform="translate(0.000000,12.059216)" id="shape62"/><path d="M.0,12.2L23.3,.0L23.3,2.6L.0,14.8L.0,12.2z" stroke="#caccd3" fill-rule="nonzero" fill="#caccd3" stroke-width="0.5" transform="translate(59.393666,31.495223)" id="shape63"/><path d="M.0,10.2L34.7,28.6L54.3,18.3L19.4,.0L.0,10.2z" stroke="#e2e4e9" fill-rule="nonzero" fill="#e2e4e9" stroke-width="0.5" transform="translate(4.094456,0.994734)" id="shape64"/><path d="M.0,10.2L19.6,.0L19.6,1.9L.0,12.2L.0,10.2z" stroke="#caccd3" fill-rule="nonzero" fill="#caccd3" stroke-width="0.5" transform="translate(38.783816,19.329254)" id="shape65"/><path d="M.0,.0L34.6,18.3L34.6,20.1L.0,1.7L.0,.0z" stroke="#eaecf3" fill-rule="nonzero" fill="#eaecf3" stroke-width="0.5" transform="translate(4.094456,11.241338)" id="shape66"/><path d="M.0,10.1L17.0,19.4L37.0,9.1L20.1,.0L.0,10.1z" stroke="#e2e4e9" fill-rule="nonzero" fill="#e2e4e9" stroke-width="0.5" transform="translate(41.622429,21.115890)" id="shape67"/><path d="M.0,10.3L.0,11.8L20.1,1.3L20.0,.0L.0,10.3z" stroke="#caccd3" fill-rule="nonzero" fill="#caccd3" stroke-width="0.5" transform="translate(58.562942,30.224630)" id="shape68"/><path d="M.0,.0L.0,1.7L17.0,10.9L16.9,9.3L.0,.0z" stroke="#eaecf3" fill-rule="nonzero" fill="#eaecf3" stroke-width="0.5" transform="translate(41.622429,31.195917)" id="shape69"/><g transform="translate(45.291293,22.795103)" id="group70"><path d="M.0,.0L16.9,9.0" stroke="#ffffff" fill="none" stroke-width="1" transform="translate(1.616979,6.058098)" id="shape71"/><path d="M.0,.0L16.9,9.0" stroke="#ffffff" fill="none" stroke-width="1" transform="translate(11.876797,0.656359)" id="shape72"/><path d="M.0,10.3L19.8,.0" stroke="#ffffff" fill="none" stroke-width="1" transform="translate(8.922275,4.966551)" id="shape73"/><path d="M.0,.0L16.9,9.0" stroke="#ffffff" fill="none" stroke-width="1" transform="translate(6.756049,3.098791)" id="shape74"/><path d="M.0,10.3L19.8,.0" stroke="#ffffff" fill="none" stroke-width="1" transform="translate(4.598011,2.587520)" id="shape75"/><path d="M.0,10.3L19.8,.0" stroke="#ffffff" fill="none" stroke-width="1" transform="translate(0.000000,0.000000)" id="shape76"/></g><path d="M.0,10.3L19.8,.0" stroke="#ffffff" fill="none" stroke-width="1" transform="translate(35.358702,17.513686)" id="shape77"/><path d="M.0,10.3L19.8,.0" stroke="#ffffff" fill="none" stroke-width="1" transform="translate(31.116546,15.134655)" id="shape78"/><path d="M.0,10.3L19.8,.0" stroke="#ffffff" fill="none" stroke-width="1" transform="translate(27.021273,13.272578)" id="shape79"/><path d="M.0,.0L34.9,18.6" stroke="#ffffff" fill="none" stroke-width="1" transform="translate(8.884962,8.460287)" id="shape80"/><path d="M.0,.0L34.6,18.4" stroke="#ffffff" fill="none" stroke-width="1" transform="translate(19.480678,3.237098)" id="shape81"/><path d="M.0,.0L34.5,18.4" stroke="#ffffff" fill="none" stroke-width="1" transform="translate(14.396058,5.703604)" id="shape82"/><path d="M.0,7.6L14.7,.0" stroke="#ffffff" fill="none" stroke-width="1" transform="translate(24.438714,9.113263)" id="shape83"/><path d="M.0,7.6L14.7,.0" stroke="#ffffff" fill="none" stroke-width="1" transform="translate(27.930115,11.072037)" id="shape84"/><path d="M.0,10.3L19.8,.0" stroke="#ffffff" fill="none" stroke-width="1" transform="translate(15.322985,7.097032)" id="shape85"/><path d="M.0,10.3L19.8,.0" stroke="#ffffff" fill="none" stroke-width="1" transform="translate(11.521478,4.944777)" id="shape86"/><path d="M.0,10.3L19.8,.0" stroke="#ffffff" fill="none" stroke-width="1" transform="translate(7.426205,2.816702)" id="shape87"/></g><text style="fill:#191919;font-family:Arial;font-size:12.00pt" xml:space="preserve"><tspan x="-4.0" y="150.5">Ubuntu22.04 VM</tspan></text></g><g transform="translate(201.999940,353.999940)" id="group88"><path d="M.0,33.8C.0,31.3,.1,10.1,.0,8.7C4.4,5.3,15.6,.0,24.4,.0C32.1,.0,45.4,5.6,49.9,8.3C50.1,9.0,49.9,30.8,49.9,33.8C49.9,40.5,38.8,46.0,25.0,46.0C11.2,46.0,.0,40.5,.0,33.8z" stroke="#caccd3" fill-rule="nonzero" fill="#caccd3" stroke-width="0.5" transform="translate(0.000000,3.961320)" id="shape89"/><path d="M.0,.3C.0,.3,.0,23.0,.0,24.3C.0,25.7,.1,30.5,6.6,33.7C15.0,37.9,25.0,37.6,25.0,37.6L25.0,.0L.0,.3z" fill-rule="nonzero" fill="url(#lg1)" transform="translate(0.006920,12.359286)" id="shape90"/><path d="M.0,12.3C.0,5.5,11.2,.0,25.0,.0C38.8,.0,50.0,5.5,50.0,12.3C50.0,19.1,38.8,24.6,25.0,24.6C11.2,24.6,.0,19.1,.0,12.3z" stroke="#e2e4e9" fill-rule="nonzero" fill="#e2e4e9" stroke-width="0.5" transform="translate(0.000000,-0.000000)" id="shape91"/><path d="M.0,11.7C.0,5.2,10.6,.0,23.7,.0C36.9,.0,47.5,5.2,47.5,11.7C47.5,18.1,36.9,23.4,23.7,23.4C10.6,23.4,.0,18.1,.0,11.7z" fill-rule="nonzero" fill="#ffffff" fill-opacity="0.42" transform="translate(1.260478,0.603943)" id="shape92"/><path d="M25.9,1.4L3.3,13.1L.7,11.6L.0,15.8L7.9,15.3L5.5,14.1L28.1,2.7L30.9,4.0L30.8,.1L23.2,.0L25.9,1.4z" fill-rule="nonzero" fill="#e85464" transform="translate(8.677261,3.882065)" id="shape93"/><path d="M.0,1.1L2.5,.0L12.2,4.9L14.4,4.0L14.7,7.1L8.2,7.3L10.2,6.2L.0,1.1z" fill-rule="nonzero" fill="#e85464" transform="translate(8.022422,3.089846)" id="shape94"/><path d="M.0,.2L.2,3.2L2.5,2.2L12.2,7.3L14.5,6.2L4.5,1.1L6.5,.0L.0,.2z" fill-rule="nonzero" fill="#e85464" transform="translate(27.505152,13.151480)" id="shape95"/></g><g transform="translate(43.999879,114.000000)" id="group96"><path d="M152.0,73.7C152.0,58.7,141.5,46.4,128.0,44.7C128.1,44.2,128.1,43.8,128.1,43.3C128.1,19.4,110.1,.0,87.9,.0C71.9,.0,58.1,10.2,51.7,24.8C48.4,22.5,44.4,21.1,40.2,21.1C29.3,21.1,20.4,30.1,19.6,41.6C8.2,45.9,.0,57.6,.0,71.4C.0,88.5,12.5,102.3,28.2,102.9L28.2,103.0L125.9,103.0L125.9,102.9C140.4,102.3,152.0,89.5,152.0,73.7L152.0,73.7" stroke="#89c3eb" fill-rule="nonzero" fill="#89c3eb" stroke-width="1" id="shape97"/><path d="M.0,17.7L.0,.0L2.1,.0L2.1,17.7L.0,17.7zM5.0,17.7L7.0,17.7L7.0,10.7C7.0,9.0,7.3,7.9,7.9,7.3C8.6,6.7,9.3,6.5,10.1,6.5C10.7,6.5,11.1,6.6,11.5,6.8C11.9,7.1,12.2,7.5,12.3,7.9C12.5,8.3,12.6,9.0,12.6,9.9L12.6,17.7L14.6,17.7L14.6,9.8C14.6,8.8,14.5,8.1,14.5,7.7C14.3,7.1,14.1,6.5,13.8,6.1C13.5,5.6,13.1,5.3,12.5,5.0C11.9,4.7,11.3,4.6,10.6,4.6C8.9,4.6,7.7,5.3,6.8,6.7L6.8,4.9L5.0,4.9L5.0,17.7zM22.6,15.7C22.2,15.8,21.9,15.8,21.7,15.8C21.4,15.8,21.2,15.7,21.0,15.6C20.9,15.5,20.7,15.4,20.7,15.2C20.6,15.0,20.6,14.6,20.6,14.0L20.6,6.6L22.6,6.6L22.6,4.9L20.6,4.9L20.6,.4L18.6,1.7L18.6,4.9L17.1,4.9L17.1,6.6L18.6,6.6L18.6,13.9C18.6,15.2,18.7,16.1,18.8,16.5C19.0,16.9,19.3,17.2,19.7,17.5C20.1,17.7,20.6,17.8,21.4,17.8C21.8,17.8,22.3,17.8,22.9,17.6L22.6,15.7zM31.9,13.5C31.6,14.5,31.2,15.1,30.7,15.5C30.2,16.0,29.5,16.2,28.8,16.2C27.8,16.2,27.0,15.8,26.4,15.0C25.7,14.3,25.3,13.2,25.3,11.8L34.0,11.8C34.0,11.6,34.0,11.4,34.0,11.2C34.0,9.1,33.5,7.5,32.5,6.3C31.5,5.2,30.3,4.6,28.7,4.6C27.1,4.6,25.8,5.2,24.7,6.4C23.7,7.5,23.2,9.2,23.2,11.4C23.2,13.4,23.7,15.1,24.7,16.2C25.7,17.4,27.1,17.9,28.8,17.9C30.2,17.9,31.3,17.6,32.2,16.9C33.0,16.1,33.6,15.1,34.0,13.8L31.9,13.5zM25.4,10.0C25.4,8.9,25.8,8.0,26.4,7.4C27.0,6.7,27.8,6.4,28.7,6.4C29.7,6.4,30.5,6.8,31.2,7.6C31.6,8.1,31.8,9.0,31.9,10.0L25.4,10.0zM37.0,17.7L39.0,17.7L39.0,11.0C39.0,10.0,39.1,9.2,39.4,8.4C39.5,7.9,39.8,7.5,40.1,7.2C40.5,7.0,40.8,6.8,41.3,6.8C41.8,6.8,42.2,7.0,42.7,7.3L43.4,5.3C42.7,4.8,42.0,4.6,41.4,4.6C40.9,4.6,40.5,4.7,40.1,5.0C39.7,5.3,39.3,5.9,38.8,6.8L38.8,4.9L37.0,4.9L37.0,17.7zM44.6,17.7L46.6,17.7L46.6,10.7C46.6,9.0,46.9,7.9,47.5,7.3C48.1,6.7,48.9,6.5,49.7,6.5C50.2,6.5,50.7,6.6,51.1,6.8C51.5,7.1,51.8,7.5,51.9,7.9C52.1,8.3,52.1,9.0,52.1,9.9L52.1,17.7L54.1,17.7L54.1,9.8C54.1,8.8,54.1,8.1,54.0,7.7C53.9,7.1,53.7,6.5,53.4,6.1C53.1,5.6,52.7,5.3,52.1,5.0C51.5,4.7,50.8,4.6,50.1,4.6C48.5,4.6,47.3,5.3,46.4,6.7L46.4,4.9L44.6,4.9L44.6,17.7zM65.8,13.5C65.5,14.5,65.1,15.1,64.6,15.5C64.1,16.0,63.5,16.2,62.7,16.2C61.8,16.2,60.9,15.8,60.3,15.0C59.6,14.3,59.3,13.2,59.2,11.8L67.9,11.8C67.9,11.6,67.9,11.4,67.9,11.2C67.9,9.1,67.4,7.5,66.5,6.3C65.5,5.2,64.2,4.6,62.6,4.6C61.0,4.6,59.7,5.2,58.7,6.4C57.6,7.5,57.1,9.2,57.1,11.4C57.1,13.4,57.6,15.1,58.6,16.2C59.6,17.4,61.0,17.9,62.7,17.9C64.1,17.9,65.2,17.6,66.1,16.9C67.0,16.1,67.6,15.1,67.9,13.8L65.8,13.5zM59.3,10.0C59.4,8.9,59.7,8.0,60.3,7.4C61.0,6.7,61.7,6.4,62.6,6.4C63.6,6.4,64.5,6.8,65.1,7.6C65.5,8.1,65.8,9.0,65.8,10.0L59.3,10.0zM75.3,15.7C75.0,15.8,74.7,15.8,74.5,15.8C74.2,15.8,73.9,15.7,73.8,15.6C73.6,15.5,73.5,15.4,73.4,15.2C73.4,15.0,73.3,14.6,73.3,14.0L73.3,6.6L75.3,6.6L75.3,4.9L73.3,4.9L73.3,.4L71.4,1.7L71.4,4.9L69.9,4.9L69.9,6.6L71.4,6.6L71.4,13.9C71.4,15.2,71.4,16.1,71.6,16.5C71.8,16.9,72.0,17.2,72.4,17.5C72.8,17.7,73.4,17.8,74.1,17.8C74.6,17.8,75.1,17.8,75.6,17.6L75.3,15.7z" stroke="#ffffff" fill-rule="nonzero" fill="#ffffff" stroke-width="1" transform="translate(38.193040,52.893229)" id="shape98"/></g><g transform="translate(118.251826,217.000000)" id="shape99"><path d="M.0,.0L.0,167.8L83.8,167.8" stroke="#191919" fill="none" stroke-width="1"/><rect height="19.0" x="-12.5" fill="#ffffff" y="158.3" width="79.1"/><text style="fill:#191919;font-family:Arial;font-size:12.00pt" xml:space="preserve"><tspan x="-12.5" y="174.3">wan (dhcp)</tspan></text></g><path d="M.0,.0L822.0,.0" stroke="#000000" fill="none" stroke-width="1" transform="translate(191.259843,283.850394)" id="shape100"/><path d="M.0,.0L822.0,.0" stroke="#000000" fill="none" stroke-width="1" transform="translate(191.259843,538.000000)" id="shape101"/><g transform="translate(227.000000,353.999940)" id="shape102"><path d="M.0,.0L.0,-70.1" stroke="#191919" fill="none" stroke-width="1"/><rect height="19.0" x="-50.1" fill="#ffffff" y="-64.1" width="102.2"/><rect height="19.0" x="-36.8" fill="#ffffff" y="-45.1" width="75.5"/><text style="fill:#191919;font-family:Arial;font-size:12.00pt" xml:space="preserve"><tspan x="-50.1" y="-48.1">openwrt-mgmt</tspan><tspan x="-36.8" y="-29.1">172.16.1.2</tspan></text></g><g transform="translate(340.000000,342.000000)" id="shape103"><path d="M.0,.0L.0,-59.0" stroke="#191919" fill="none" stroke-width="1"/><rect height="19.0" x="-48.3" fill="#ffffff" y="-47.1" width="98.6"/><rect height="19.0" x="-41.2" fill="#ffffff" y="-28.1" width="84.4"/><text style="fill:#191919;font-family:Arial;font-size:12.00pt" xml:space="preserve"><tspan x="-48.3" y="-31.1">server1-mgmt</tspan><tspan x="-41.2" y="-12.1">172.16.1.10</tspan></text></g><g transform="translate(472.000000,342.000000)" id="shape104"><path d="M.0,.0L.0,-59.0" stroke="#191919" fill="none" stroke-width="1"/><rect height="19.0" x="-48.3" fill="#ffffff" y="-47.1" width="98.6"/><rect height="19.0" x="-40.6" fill="#ffffff" y="-28.1" width="83.3"/><text style="fill:#191919;font-family:Arial;font-size:12.00pt" xml:space="preserve"><tspan x="-48.3" y="-31.1">server2-mgmt</tspan><tspan x="-40.6" y="-12.1">172.16.1.11</tspan></text></g><g transform="translate(604.000000,342.000000)" id="shape105"><path d="M.0,.0L.0,-59.0" stroke="#191919" fill="none" stroke-width="1"/><rect height="19.0" x="-48.3" fill="#ffffff" y="-44.1" width="98.6"/><rect height="19.0" x="-41.2" fill="#ffffff" y="-25.1" width="84.4"/><text style="fill:#191919;font-family:Arial;font-size:12.00pt" xml:space="preserve"><tspan x="-48.3" y="-28.1">server3-mgmt</tspan><tspan x="-41.2" y="-9.1">172.16.1.12</tspan></text></g><g transform="translate(736.000000,342.000000)" id="shape106"><path d="M.0,.0L.0,-59.0" stroke="#191919" fill="none" stroke-width="1"/><rect height="19.0" x="-48.3" fill="#ffffff" y="-45.1" width="98.6"/><rect height="19.0" x="-41.2" fill="#ffffff" y="-26.1" width="84.4"/><text style="fill:#191919;font-family:Arial;font-size:12.00pt" xml:space="preserve"><tspan x="-48.3" y="-29.1">server4-mgmt</tspan><tspan x="-41.2" y="-10.1">172.16.1.13</tspan></text></g><g transform="translate(227.000000,538.000000)" id="shape107"><path d="M.0,.0L.0,-134.0" stroke="#191919" fill="none" stroke-width="1"/><rect height="19.0" x="-27.4" fill="#ffffff" y="-132.1" width="56.9"/><rect height="19.0" x="-45.7" fill="#ffffff" y="-113.1" width="93.3"/><text style="fill:#191919;font-family:Arial;font-size:12.00pt" xml:space="preserve"><tspan x="-27.4" y="-116.1">openwrt</tspan><tspan x="-45.7" y="-97.1">192.168.16.2</tspan></text></g><g transform="translate(340.000000,539.000000)" id="shape108"><path d="M.0,.0L.0,-123.0" stroke="#191919" fill="none" stroke-width="1"/><rect height="19.0" x="-25.7" fill="#ffffff" y="-125.1" width="53.3"/><rect height="19.0" x="-50.1" fill="#ffffff" y="-106.1" width="102.2"/><text style="fill:#191919;font-family:Arial;font-size:12.00pt" xml:space="preserve"><tspan x="-25.7" y="-109.1">server1</tspan><tspan x="-50.1" y="-90.1">192.168.16.10</tspan></text></g><g transform="translate(472.000000,539.000000)" id="shape109"><path d="M.0,.0L.0,-123.0" stroke="#191919" fill="none" stroke-width="1"/><rect height="19.0" x="-25.7" fill="#ffffff" y="-123.1" width="53.3"/><rect height="19.0" x="-49.5" fill="#ffffff" y="-104.1" width="101.0"/><text style="fill:#191919;font-family:Arial;font-size:12.00pt" xml:space="preserve"><tspan x="-25.7" y="-107.1">server2</tspan><tspan x="-49.5" y="-88.1">192.168.16.11</tspan></text></g><g transform="translate(604.000000,539.000000)" id="shape110"><path d="M.0,.0L.0,-123.0" stroke="#191919" fill="none" stroke-width="1"/><rect height="19.0" x="-25.7" fill="#ffffff" y="-127.1" width="53.3"/><rect height="19.0" x="-50.1" fill="#ffffff" y="-108.1" width="102.2"/><text style="fill:#191919;font-family:Arial;font-size:12.00pt" xml:space="preserve"><tspan x="-25.7" y="-111.1">server3</tspan><tspan x="-50.1" y="-92.1">192.168.16.12</tspan></text></g><g transform="translate(736.000000,539.000000)" id="shape111"><path d="M.0,.0L.0,-123.0" stroke="#191919" fill="none" stroke-width="1"/><rect height="19.0" x="-25.7" fill="#ffffff" y="-128.1" width="53.3"/><rect height="19.0" x="-50.1" fill="#ffffff" y="-109.1" width="102.2"/><text style="fill:#191919;font-family:Arial;font-size:12.00pt" xml:space="preserve"><tspan x="-25.7" y="-112.1">server4</tspan><tspan x="-50.1" y="-93.1">192.168.16.13</tspan></text></g><g transform="translate(979.000000,379.000000)" id="shape112"><path d="M.0,.0L23.0,.0L23.0,-96.0" stroke="#191919" fill="none" stroke-width="1"/><rect height="19.0" x="-24.4" fill="#ffffff" y="-66.1" width="96.9"/><rect height="19.0" x="-13.8" fill="#ffffff" y="-47.1" width="75.5"/><text style="fill:#191919;font-family:Arial;font-size:12.00pt" xml:space="preserve"><tspan x="-24.4" y="-50.1">hostvm-mgmt</tspan><tspan x="-13.8" y="-31.1">172.16.1.1</tspan></text></g><g transform="translate(977.399752,407.199030)" id="shape113"><path d="M.0,.0L24.6,.0L24.6,131.8" stroke="#191919" fill="none" stroke-width="1"/><rect height="19.0" x="-0.2" fill="#ffffff" y="69.7" width="51.5"/><rect height="19.0" x="-21.1" fill="#ffffff" y="88.7" width="93.3"/><text style="fill:#191919;font-family:Arial;font-size:12.00pt" xml:space="preserve"><tspan x="-0.2" y="85.7">hostvm</tspan><tspan x="-21.1" y="104.7">192.168.16.1</tspan></text></g></g></svg>