<svg height="804" width="1133" xmlns:ev="http://www.w3.org/2001/xml-events" viewBox="0 0 1133 804" xmlns:xlink="http://www.w3.org/1999/xlink" xmlns="http://www.w3.org/2000/svg" xmlns:ed="https://www.edrawsoft.cn/xml/2017/SVGExtensions/"><defs><linearGradient x2="0%" y2="0%" x1="100%" id="lg1" y1="0%"><stop offset="0.00" stop-color="#ffffff" stop-opacity="0.00"/><stop offset="0.49" stop-color="#ffffff" stop-opacity="0.30"/><stop offset="0.77" stop-color="#ffffff" stop-opacity="0.35"/><stop offset="0.90" stop-color="#ffffff" stop-opacity="0.30"/><stop offset="1.00" stop-color="#ffffff" stop-opacity="0.00"/></linearGradient></defs><g id="page1" transform="translate(5.5,5.5)" ed:name="Page-1"><rect height="794" stroke="#808080" width="1123" x="0" fill="#ffffff" y="0"/><g id="group1" transform="translate(410.443182,419.924364)"><path stroke="#d6d8df" fill-rule="nonzero" stroke-width="0.5" id="shape2" fill="#d6d8df" d="M.0,.0L87.9,46.8L87.9,67.2L.0,20.4L.0,.0z" transform="translate(0.000000,42.913631)"/><path stroke="#000000" stroke-width="1" id="shape3" fill="none" d="M.0,.0L77.0,41.4" stroke-dasharray="3.8,1.2" transform="translate(0.350270,54.132122)"/><path stroke="#ffffff" fill-rule="nonzero" stroke-width="1" id="shape4" fill="#ffffff" d="M.0,.0L17.3,9.1L17.3,18.4L.0,9.0L.0,.0z" transform="translate(33.934460,67.592847)"/><path stroke="#caccd3" fill-rule="nonzero" stroke-width="0.5" id="shape5" fill="#caccd3" d="M.0,.0L81.8,43.0L81.8,63.4L.0,20.4L.0,.0z" transform="matrix(-1.000000,0.000000,0.000000,1.000000,169.704545,46.720508)"/><path stroke="#e2e4e9" fill-rule="nonzero" stroke-width="0.5" id="shape6" fill="#e2e4e9" d="M87.9,89.8L.0,42.9L81.8,.0L169.7,46.7L87.9,89.8z"/><path stroke="#62bc85" fill-rule="nonzero" stroke-width="1" id="shape7" fill="#62bc85" d="M.0,.0L15.7,8.3L15.7,15.5L.0,7.0L.0,.0z" transform="translate(34.654669,69.067051)"/><path stroke="#e85464" fill-rule="nonzero" stroke-width="0.25" id="shape8" fill="#e85464" d="M.0,5.4C-0.2,2.6,1.3,.2,3.5,.0C5.6,-0.2,7.6,1.9,7.8,4.7C8.1,7.5,6.5,9.8,4.4,10.0C2.2,10.2,.3,8.1,.0,5.4z" transform="matrix(0.999391,-0.034899,0.034899,0.999391,74.871512,90.392035)"/><path stroke="#ff7878" fill-rule="nonzero" stroke-width="0.4799999892711639" id="shape9" fill="#ff7878" d="M.0,4.3C-0.2,2.1,1.1,.2,2.8,.0C4.5,-0.1,6.0,1.5,6.2,3.7C6.4,5.9,5.2,7.9,3.5,8.0C1.8,8.1,.2,6.5,.0,4.3z" transform="matrix(0.999391,-0.034899,0.034899,0.999391,75.699595,91.379399)"/><path fill-rule="nonzero" id="shape10" fill="#ffffff" fill-opacity="0.12" d="M.0,3.6C-0.1,2.1,.4,.8,1.3,.0C1.3,.0,5.1,6.6,5.1,6.6C4.7,7.0,4.1,7.3,3.5,7.4C1.8,7.5,.3,5.9,.0,3.6z" transform="matrix(0.999391,-0.034899,0.034899,0.999391,75.684398,92.006568)"/><path fill-rule="nonzero" id="shape11" fill="#ffffff" fill-opacity="0.29" d="M.0,.0L15.0,7.8L15.0,14.4L.0,6.4L.0,.0z" transform="translate(35.018652,69.657614)"/><text xml:space="preserve" style="fill:#191919;font-family:Arial;font-size:12.00pt"><tspan x="77.0" y="128.7">10</tspan></text></g><g id="group12" transform="translate(606.943182,419.924364)"><path stroke="#d6d8df" fill-rule="nonzero" stroke-width="0.5" id="shape13" fill="#d6d8df" d="M.0,.0L87.9,46.8L87.9,67.2L.0,20.4L.0,.0z" transform="translate(0.000000,42.913631)"/><path stroke="#000000" stroke-width="1" id="shape14" fill="none" d="M.0,.0L77.0,41.4" stroke-dasharray="3.8,1.2" transform="translate(0.350270,54.132122)"/><path stroke="#ffffff" fill-rule="nonzero" stroke-width="1" id="shape15" fill="#ffffff" d="M.0,.0L17.3,9.1L17.3,18.4L.0,9.0L.0,.0z" transform="translate(33.934460,67.592847)"/><path stroke="#caccd3" fill-rule="nonzero" stroke-width="0.5" id="shape16" fill="#caccd3" d="M.0,.0L81.8,43.0L81.8,63.4L.0,20.4L.0,.0z" transform="matrix(-1.000000,0.000000,0.000000,1.000000,169.704545,46.720508)"/><path stroke="#e2e4e9" fill-rule="nonzero" stroke-width="0.5" id="shape17" fill="#e2e4e9" d="M87.9,89.8L.0,42.9L81.8,.0L169.7,46.7L87.9,89.8z"/><path stroke="#62bc85" fill-rule="nonzero" stroke-width="1" id="shape18" fill="#62bc85" d="M.0,.0L15.7,8.3L15.7,15.5L.0,7.0L.0,.0z" transform="translate(34.654669,69.067051)"/><path stroke="#e85464" fill-rule="nonzero" stroke-width="0.25" id="shape19" fill="#e85464" d="M.0,5.4C-0.2,2.6,1.3,.2,3.5,.0C5.6,-0.2,7.6,1.9,7.8,4.7C8.1,7.5,6.5,9.8,4.4,10.0C2.2,10.2,.3,8.1,.0,5.4z" transform="matrix(0.999391,-0.034899,0.034899,0.999391,74.871512,90.392035)"/><path stroke="#ff7878" fill-rule="nonzero" stroke-width="0.4799999892711639" id="shape20" fill="#ff7878" d="M.0,4.3C-0.2,2.1,1.1,.2,2.8,.0C4.5,-0.1,6.0,1.5,6.2,3.7C6.4,5.9,5.2,7.9,3.5,8.0C1.8,8.1,.2,6.5,.0,4.3z" transform="matrix(0.999391,-0.034899,0.034899,0.999391,75.699595,91.379399)"/><path fill-rule="nonzero" id="shape21" fill="#ffffff" fill-opacity="0.12" d="M.0,3.6C-0.1,2.1,.4,.8,1.3,.0C1.3,.0,5.1,6.6,5.1,6.6C4.7,7.0,4.1,7.3,3.5,7.4C1.8,7.5,.3,5.9,.0,3.6z" transform="matrix(0.999391,-0.034899,0.034899,0.999391,75.684398,92.006568)"/><path fill-rule="nonzero" id="shape22" fill="#ffffff" fill-opacity="0.29" d="M.0,.0L15.0,7.8L15.0,14.4L.0,6.4L.0,.0z" transform="translate(35.018652,69.657614)"/></g><g id="group23" transform="translate(819.073715,379.507886)"><g id="group24" transform="translate(69.446048,91.067532)"><path stroke="#9e9f9f" fill-rule="nonzero" stroke-width="1" id="shape25" fill="#9e9f9f" d="M.0,31.2C.0,14.0,21.1,.0,47.2,.0C73.2,.0,94.3,14.0,94.3,31.2C94.3,48.4,73.2,62.4,47.2,62.4C21.1,62.4,.0,48.4,.0,31.2z" transform="translate(0.000000,4.312474)"/><path stroke="#d6d8df" fill-rule="nonzero" stroke-width="0.5" id="shape26" fill="#d6d8df" d="M.0,32.6C.0,14.6,21.1,.0,47.2,.0C73.2,.0,94.3,14.6,94.3,32.6C94.3,50.6,73.2,65.2,47.2,65.2C21.1,65.2,.0,50.6,.0,32.6z" transform="translate(0.000000,0.000033)"/><path fill-rule="nonzero" id="shape27" fill="#ffffff" fill-opacity="0.22" d="M.0,.0C.0,.0,3.9,9.4,12.3,27.5C16.3,36.0,24.4,45.6,24.4,45.6C24.4,45.6,32.2,43.4,41.5,37.1C55.3,27.6,.0,-1.6,.0,.0z" transform="translate(40.629868,17.624947)"/></g><g id="group28" transform="translate(99.798829,112.096962)"><path stroke="#eaecf3" fill-rule="nonzero" stroke-width="0.5" id="shape29" fill="#eaecf3" d="M.0,.0L12.6,6.9L12.6,21.5L.0,14.6L.0,.0z" transform="translate(0.000000,3.142003)"/><path stroke="#e2e4e9" fill-rule="nonzero" stroke-width="0.5" id="shape30" fill="#e2e4e9" d="M12.6,10.0L.0,3.1L6.0,.0L18.6,6.9L12.6,10.0z"/><path stroke="#caccd3" fill-rule="nonzero" stroke-width="0.5" id="shape31" fill="#caccd3" d="M.0,.0L6.0,3.2L6.0,17.7L.0,14.6L.0,.0z" transform="matrix(-1.000000,0.000000,0.000000,1.000000,18.558279,6.868395)"/></g><path stroke="#e2e4e9" fill-rule="nonzero" stroke-width="0.5" id="shape32" fill="#e2e4e9" d="M19.0,1.9C10.3,-2.8,.0,1.8,.0,9.2C.0,17.4,94.9,50.8,99.6,53.8C104.3,53.8,109.3,66.8,109.3,59.0C109.3,51.1,106.2,46.3,101.4,42.9C96.0,39.1,25.8,5.5,19.0,1.9z" transform="translate(52.019363,0.000000)"/><path stroke="#caccd3" fill-rule="nonzero" stroke-width="0.5" id="shape33" fill="#caccd3" d="M9.6,6.7C9.6,14.9,-3.7,99.1,1.0,102.0C5.7,102.0,19.4,101.5,19.4,93.9C19.4,87.1,19.4,20.5,19.4,12.6C19.4,7.1,17.9,3.1,15.3,.0C13.8,-0.1,9.6,1.1,9.6,6.7z" transform="translate(141.964946,46.353368)"/><path stroke="#eaecf3" fill-rule="nonzero" stroke-width="0.5" id="shape34" fill="#eaecf3" d="M11.6,1.8C2.9,-2.8,.0,1.8,.0,9.3C.0,17.5,.0,78.9,.0,84.7C.0,90.4,1.8,100.0,6.8,102.5C11.9,105.0,85.7,141.8,90.4,144.8C95.1,144.8,102.0,144.8,102.0,137.2C102.0,130.4,102.0,66.8,102.0,58.9C102.0,51.1,98.8,46.3,94.0,42.9C88.6,39.0,18.4,5.4,11.6,1.8z" transform="translate(51.635287,3.754525)"/><path stroke="#5fb7f1" fill-rule="nonzero" stroke-width="1" id="shape35" fill="#5fb7f1" d="M12.1,1.9C3.4,-2.8,.0,1.9,.0,9.3C.0,17.5,.0,65.7,.0,71.2C.0,76.9,1.8,86.6,6.8,89.1C11.9,91.6,75.2,124.1,79.9,127.1C85.4,130.0,92.0,127.1,92.0,119.5C92.0,112.7,92.0,61.4,92.0,54.7C92.0,46.8,88.9,42.0,84.0,38.6C78.6,34.7,19.0,5.4,12.1,1.9z" transform="translate(56.516020,12.407600)"/><path fill-rule="nonzero" id="shape36" fill="#ffffff" fill-opacity="0.29" d="M12.1,1.9C3.4,-2.8,.0,1.9,.0,9.3C.0,17.5,.0,62.4,.0,68.6C.0,74.3,1.7,83.9,6.8,86.4C11.9,88.9,72.7,120.5,77.4,123.5C82.8,125.3,89.6,123.5,89.6,115.9C89.6,109.1,89.6,61.2,89.6,53.8C89.6,45.9,86.5,41.1,81.6,37.7C76.2,33.8,19.0,5.4,12.1,1.9z" transform="translate(58.228517,14.550727)"/><path fill-rule="nonzero" id="shape37" fill="#ffffff" fill-opacity="0.28" d="M.0,52.8C.0,52.8,.0,12.2,.0,6.6C.0,1.1,5.1,-1.8,11.0,1.1C16.9,4.0,55.8,23.1,55.8,23.1C55.8,23.1,32.9,21.3,19.1,29.7C5.2,38.2,.0,52.8,.0,52.8z" transform="translate(56.692706,13.156658)"/><g id="group38" transform="translate(-0.000082,127.607198)"><path stroke="#bfc1c7" fill-rule="nonzero" stroke-width="0.5" id="shape39" fill="#bfc1c7" d="M.0,18.0L88.2,65.0L123.1,46.9L34.3,.0L.0,18.0z"/><path stroke="#d6d8df" fill-rule="nonzero" stroke-width="0.5" id="shape40" fill="#d6d8df" d="M.0,.0L.0,3.8L88.4,50.9L88.4,47.1L.0,.0z" transform="translate(0.000000,17.951785)"/><path stroke="#caccd3" fill-rule="nonzero" stroke-width="0.5" id="shape41" fill="#caccd3" d="M.0,18.1L34.7,.0L34.7,3.9L.0,22.0L.0,18.1z" transform="translate(88.415554,46.884895)"/><path stroke="#e2e4e9" fill-rule="nonzero" stroke-width="0.5" id="shape42" fill="#e2e4e9" d="M.0,15.3L51.6,42.6L80.9,27.3L29.0,.0L.0,15.3z" transform="translate(6.095140,1.480814)"/><path stroke="#caccd3" fill-rule="nonzero" stroke-width="0.5" id="shape43" fill="#caccd3" d="M.0,15.3L29.2,.0L29.2,2.8L.0,18.1L.0,15.3z" transform="translate(57.735066,28.774209)"/><path stroke="#eaecf3" fill-rule="nonzero" stroke-width="0.5" id="shape44" fill="#eaecf3" d="M.0,.0L51.5,27.3L51.5,29.9L.0,2.6L.0,.0z" transform="translate(6.095140,16.734244)"/><path stroke="#e2e4e9" fill-rule="nonzero" stroke-width="0.5" id="shape45" fill="#e2e4e9" d="M.0,15.0L25.2,28.8L55.1,13.6L29.9,.0L.0,15.0z" transform="translate(61.960761,31.433812)"/><path stroke="#caccd3" fill-rule="nonzero" stroke-width="0.5" id="shape46" fill="#caccd3" d="M.0,15.3L.0,17.6L29.9,1.9L29.8,.0L.0,15.3z" transform="translate(87.178939,44.993411)"/><path stroke="#eaecf3" fill-rule="nonzero" stroke-width="0.5" id="shape47" fill="#eaecf3" d="M.0,.0L.1,2.6L25.3,16.2L25.2,13.8L.0,.0z" transform="translate(61.960699,46.439331)"/><g id="group48" transform="translate(67.422332,33.933583)"><path stroke="#ffffff" stroke-width="1" id="shape49" fill="none" d="M.0,.0L25.2,13.4" transform="translate(2.407096,9.018280)"/><path stroke="#ffffff" stroke-width="1" id="shape50" fill="none" d="M.0,.0L25.2,13.4" transform="translate(17.680236,0.977076)"/><path stroke="#ffffff" stroke-width="1" id="shape51" fill="none" d="M.0,15.3L29.5,.0" transform="translate(13.282032,7.393366)"/><path stroke="#ffffff" stroke-width="1" id="shape52" fill="none" d="M.0,.0L25.2,13.4" transform="translate(10.057293,4.612961)"/><path stroke="#ffffff" stroke-width="1" id="shape53" fill="none" d="M.0,15.3L29.5,.0" transform="translate(6.844768,3.851870)"/><path stroke="#ffffff" stroke-width="1" id="shape54" fill="none" d="M.0,15.3L29.5,.0" transform="translate(-0.000021,0.000000)"/></g><path stroke="#ffffff" stroke-width="1" id="shape55" fill="none" d="M.0,15.3L29.5,.0" transform="translate(52.636307,26.071514)"/><path stroke="#ffffff" stroke-width="1" id="shape56" fill="none" d="M.0,15.3L29.5,.0" transform="translate(46.321178,22.529946)"/><path stroke="#ffffff" stroke-width="1" id="shape57" fill="none" d="M.0,15.3L29.5,.0" transform="translate(40.224869,19.758048)"/><path stroke="#ffffff" stroke-width="1" id="shape58" fill="none" d="M.0,.0L52.0,27.6" transform="translate(13.226473,12.594275)"/><path stroke="#ffffff" stroke-width="1" id="shape59" fill="none" d="M.0,.0L51.5,27.4" transform="translate(28.999649,4.818838)"/><path stroke="#ffffff" stroke-width="1" id="shape60" fill="none" d="M.0,.0L51.4,27.3" transform="translate(21.430553,8.490578)"/><path stroke="#ffffff" stroke-width="1" id="shape61" fill="none" d="M.0,11.3L21.9,.0" transform="translate(36.380324,13.566351)"/><path stroke="#ffffff" stroke-width="1" id="shape62" fill="none" d="M.0,11.4L21.9,.0" transform="translate(41.577724,16.482235)"/><path stroke="#ffffff" stroke-width="1" id="shape63" fill="none" d="M.0,15.3L29.5,.0" transform="translate(22.810361,10.564868)"/><path stroke="#ffffff" stroke-width="1" id="shape64" fill="none" d="M.0,15.3L29.5,.0" transform="translate(17.151322,7.360944)"/><path stroke="#ffffff" stroke-width="1" id="shape65" fill="none" d="M.0,15.3L29.5,.0" transform="translate(11.054890,4.193051)"/></g><text xml:space="preserve" style="fill:#191919;font-family:Arial;font-size:12.00pt"><tspan x="22.9" y="215.0">Ubuntu22.04 VM</tspan></text></g><g id="group66" transform="translate(289.863512,437.787876)"><path stroke="#caccd3" fill-rule="nonzero" stroke-width="0.5" id="shape67" fill="#caccd3" d="M.0,50.2C.0,46.6,.1,15.0,.0,13.0C6.6,7.9,23.2,.0,36.3,.0C47.8,.0,67.5,8.4,74.3,12.4C74.5,13.4,74.3,45.8,74.3,50.2C74.3,60.3,57.7,68.5,37.2,68.5C16.6,68.5,.0,60.3,.0,50.2z" transform="translate(0.000000,5.896947)"/><path fill-rule="nonzero" id="shape68" fill="url(#lg1)" d="M.0,.5C.0,.5,.0,34.2,.0,36.2C.0,38.2,.1,45.4,9.9,50.2C22.3,56.5,37.2,56.0,37.2,56.0L37.2,.0L.0,.5z" transform="translate(0.010272,18.398503)"/><path stroke="#e2e4e9" fill-rule="nonzero" stroke-width="0.5" id="shape69" fill="#e2e4e9" d="M.0,18.3C.0,8.2,16.7,.0,37.2,.0C57.8,.0,74.4,8.2,74.4,18.3C74.4,28.4,57.8,36.6,37.2,36.6C16.7,36.6,.0,28.4,.0,18.3z" transform="translate(0.000000,0.000037)"/><path fill-rule="nonzero" id="shape70" fill="#ffffff" fill-opacity="0.42" d="M.0,17.4C.0,7.8,15.8,.0,35.3,.0C54.9,.0,70.7,7.8,70.7,17.4C70.7,27.0,54.9,34.8,35.3,34.8C15.8,34.8,.0,27.0,.0,17.4z" transform="translate(1.876393,0.899101)"/><path fill-rule="nonzero" id="shape71" fill="#e85464" d="M38.6,2.1L4.9,19.5L1.1,17.2L.0,23.5L11.8,22.8L8.2,21.0L41.8,4.0L45.9,6.0L45.8,.1L34.6,.0L38.6,2.1z" transform="translate(12.917296,5.778972)"/><path fill-rule="nonzero" id="shape72" fill="#e85464" d="M.0,1.7L3.7,.0L18.2,7.3L21.4,6.0L21.8,10.6L12.2,10.9L15.1,9.2L.0,1.7z" transform="translate(11.942460,4.599672)"/><path fill-rule="nonzero" id="shape73" fill="#e85464" d="M.0,.2L.4,4.8L3.7,3.3L18.2,10.9L21.6,9.2L6.7,1.7L9.6,.0L.0,.2z" transform="translate(40.945174,19.577766)"/></g><g id="group74" transform="translate(54.659091,80.515273)"><path stroke="#89c3eb" fill-rule="nonzero" stroke-width="1" id="shape75" fill="#89c3eb" d="M226.3,109.8C226.3,87.5,210.7,69.1,190.6,66.5C190.6,65.8,190.7,65.2,190.7,64.5C190.7,28.9,163.9,.0,130.9,.0C107.0,.0,86.5,15.1,76.9,37.0C72.0,33.4,66.1,31.4,59.8,31.4C43.6,31.4,30.4,44.8,29.2,61.9C12.2,68.4,.0,85.8,.0,106.3C.0,131.7,18.7,152.3,42.0,153.2L42.0,153.3L187.5,153.3L187.5,153.2C209.0,152.3,226.3,133.2,226.3,109.8L226.3,109.8"/><path stroke="#ffffff" fill-rule="nonzero" stroke-width="1" id="shape76" fill="#ffffff" d="M.0,26.3L.0,.0L3.2,.0L3.2,26.3L.0,26.3zM7.5,26.3L10.5,26.3L10.5,15.9C10.5,13.4,10.9,11.8,11.8,10.9C12.7,10.0,13.8,9.6,15.1,9.6C15.9,9.6,16.6,9.8,17.2,10.2C17.7,10.6,18.1,11.1,18.4,11.8C18.6,12.4,18.7,13.4,18.7,14.7L18.7,26.3L21.7,26.3L21.7,14.6C21.7,13.1,21.6,12.0,21.5,11.4C21.3,10.5,21.0,9.7,20.6,9.1C20.2,8.4,19.5,7.8,18.6,7.4C17.7,7.0,16.8,6.8,15.7,6.8C13.3,6.8,11.4,7.9,10.2,10.0L10.2,7.2L7.5,7.2L7.5,26.3zM33.6,23.4C33.1,23.5,32.6,23.5,32.3,23.5C31.9,23.5,31.5,23.4,31.3,23.3C31.0,23.1,30.9,22.9,30.8,22.7C30.7,22.4,30.6,21.8,30.6,20.9L30.6,9.8L33.6,9.8L33.6,7.2L30.6,7.2L30.6,.6L27.7,2.5L27.7,7.2L25.5,7.2L25.5,9.8L27.7,9.8L27.7,20.7C27.7,22.6,27.8,23.9,28.0,24.5C28.3,25.1,28.7,25.6,29.3,26.0C29.9,26.3,30.7,26.5,31.8,26.5C32.4,26.5,33.2,26.4,34.0,26.2L33.6,23.4zM47.5,20.2C47.0,21.5,46.4,22.5,45.7,23.1C44.9,23.7,44.0,24.1,42.9,24.1C41.4,24.1,40.2,23.5,39.2,22.4C38.3,21.3,37.7,19.7,37.6,17.6L50.6,17.6C50.6,17.2,50.7,16.9,50.7,16.7C50.7,13.6,49.9,11.1,48.4,9.4C47.0,7.7,45.0,6.8,42.7,6.8C40.3,6.8,38.3,7.7,36.8,9.5C35.3,11.2,34.6,13.7,34.6,16.9C34.6,20.0,35.3,22.4,36.8,24.1C38.3,25.9,40.3,26.7,42.9,26.7C44.9,26.7,46.6,26.2,47.9,25.1C49.2,24.0,50.1,22.5,50.6,20.6L47.5,20.2zM37.8,14.9C37.9,13.3,38.4,11.9,39.3,11.0C40.2,10.0,41.4,9.5,42.7,9.5C44.2,9.5,45.5,10.1,46.4,11.3C47.0,12.1,47.4,13.4,47.5,14.9L37.8,14.9zM55.1,26.3L58.1,26.3L58.1,16.3C58.1,15.0,58.3,13.7,58.6,12.6C58.8,11.8,59.2,11.2,59.7,10.8C60.2,10.4,60.8,10.1,61.4,10.1C62.2,10.1,62.9,10.4,63.6,10.8L64.6,7.9C63.6,7.2,62.6,6.8,61.6,6.8C60.9,6.8,60.3,7.0,59.7,7.5C59.1,7.9,58.5,8.8,57.8,10.1L57.8,7.2L55.1,7.2L55.1,26.3zM66.4,26.3L69.4,26.3L69.4,15.9C69.4,13.4,69.8,11.8,70.7,10.9C71.6,10.0,72.7,9.6,74.0,9.6C74.8,9.6,75.5,9.8,76.1,10.2C76.6,10.6,77.1,11.1,77.3,11.8C77.5,12.4,77.6,13.4,77.6,14.7L77.6,26.3L80.6,26.3L80.6,14.6C80.6,13.1,80.5,12.0,80.4,11.4C80.2,10.5,79.9,9.7,79.5,9.1C79.1,8.4,78.4,7.8,77.5,7.4C76.6,7.0,75.7,6.8,74.6,6.8C72.2,6.8,70.3,7.9,69.1,10.0L69.1,7.2L66.4,7.2L66.4,26.3zM98.0,20.2C97.5,21.5,96.9,22.5,96.2,23.1C95.4,23.7,94.5,24.1,93.4,24.1C91.9,24.1,90.7,23.5,89.7,22.4C88.8,21.3,88.2,19.7,88.1,17.6L101.1,17.6C101.1,17.2,101.1,16.9,101.1,16.7C101.1,13.6,100.4,11.1,98.9,9.4C97.4,7.7,95.5,6.8,93.2,6.8C90.8,6.8,88.8,7.7,87.3,9.5C85.8,11.2,85.1,13.7,85.1,16.9C85.1,20.0,85.8,22.4,87.3,24.1C88.8,25.9,90.8,26.7,93.4,26.7C95.4,26.7,97.1,26.2,98.4,25.1C99.7,24.0,100.6,22.5,101.0,20.6L98.0,20.2zM88.3,14.9C88.4,13.3,88.9,11.9,89.8,11.0C90.7,10.0,91.9,9.5,93.2,9.5C94.7,9.5,96.0,10.1,96.9,11.3C97.5,12.1,97.9,13.4,98.0,14.9L88.3,14.9zM112.1,23.4C111.6,23.5,111.2,23.5,110.8,23.5C110.4,23.5,110.1,23.4,109.8,23.3C109.6,23.1,109.4,22.9,109.3,22.7C109.2,22.4,109.2,21.8,109.2,20.9L109.2,9.8L112.1,9.8L112.1,7.2L109.2,7.2L109.2,.6L106.2,2.5L106.2,7.2L104.0,7.2L104.0,9.8L106.2,9.8L106.2,20.7C106.2,22.6,106.3,23.9,106.6,24.5C106.8,25.1,107.2,25.6,107.8,26.0C108.4,26.3,109.3,26.5,110.3,26.5C111.0,26.5,111.7,26.4,112.6,26.2L112.1,23.4z" transform="translate(56.855548,78.738785)"/></g><g id="shape77" transform="translate(165.193238,233.844818)"><path stroke="#191919" stroke-width="1" fill="none" d="M.0,.0L.0,249.8L124.7,249.8"/><rect height="19.0" width="79.1" x="0.2" fill="#ffffff" y="240.3"/><text xml:space="preserve" style="fill:#191919;font-family:Arial;font-size:12.00pt"><tspan x="0.2" y="256.3">wan (dhcp)</tspan></text></g><path stroke="#000000" stroke-width="1" id="shape78" fill="none" d="M.0,.0L784.1,.0" transform="translate(273.875682,333.360159)"/><path stroke="#000000" stroke-width="1" id="shape79" fill="none" d="M.0,.0L784.1,.0" transform="translate(273.875682,711.697091)"/><g id="shape80" transform="translate(327.079495,437.787913)"><path stroke="#191919" stroke-width="1" fill="none" d="M.0,.0L.0,-35.1L-19.1,-35.1L-19.1,-104.4"/><rect height="19.0" width="102.2" x="-69.2" fill="#ffffff" y="-79.4"/><rect height="19.0" width="75.5" x="-55.9" fill="#ffffff" y="-60.4"/><text xml:space="preserve" style="fill:#191919;font-family:Arial;font-size:12.00pt"><tspan x="-69.2" y="-63.4">openwrt-mgmt</tspan><tspan x="-55.9" y="-44.4">172.16.1.2</tspan></text></g><g id="shape81" transform="translate(495.295455,419.924364)"><path stroke="#191919" stroke-width="1" fill="none" d="M.0,.0L.0,-87.8"/><rect height="19.0" width="98.6" x="-48.3" fill="#ffffff" y="-60.9"/><rect height="19.0" width="84.4" x="-41.2" fill="#ffffff" y="-41.9"/><text xml:space="preserve" style="fill:#191919;font-family:Arial;font-size:12.00pt"><tspan x="-48.3" y="-44.9">server1-mgmt</tspan><tspan x="-41.2" y="-25.9">172.16.1.10</tspan></text></g><g id="shape82" transform="translate(691.795455,419.924364)"><path stroke="#191919" stroke-width="1" fill="none" d="M.0,.0L.0,-87.8"/><rect height="19.0" width="98.6" x="-48.3" fill="#ffffff" y="-60.9"/><rect height="19.0" width="83.3" x="-40.6" fill="#ffffff" y="-41.9"/><text xml:space="preserve" style="fill:#191919;font-family:Arial;font-size:12.00pt"><tspan x="-48.3" y="-44.9">server2-mgmt</tspan><tspan x="-40.6" y="-25.9">172.16.1.11</tspan></text></g><g id="shape83" transform="translate(327.079545,711.697091)"><path stroke="#191919" stroke-width="1" fill="none" d="M.0,.0L-0.0,-199.5"/><rect height="19.0" width="56.9" x="-27.4" fill="#ffffff" y="-187.4"/><rect height="19.0" width="93.3" x="-45.7" fill="#ffffff" y="-168.4"/><text xml:space="preserve" style="fill:#191919;font-family:Arial;font-size:12.00pt"><tspan x="-27.4" y="-171.4">openwrt</tspan><tspan x="-45.7" y="-152.4">192.168.16.2</tspan></text></g><g id="shape84" transform="translate(495.295455,713.185727)"><path stroke="#191919" stroke-width="1" fill="none" d="M.0,.0L.0,-183.1"/><rect height="19.0" width="53.3" x="-25.7" fill="#ffffff" y="-177.0"/><rect height="19.0" width="102.2" x="-50.1" fill="#ffffff" y="-158.0"/><text xml:space="preserve" style="fill:#191919;font-family:Arial;font-size:12.00pt"><tspan x="-25.7" y="-161.0">server1</tspan><tspan x="-50.1" y="-142.0">192.168.16.10</tspan></text></g><g id="shape85" transform="translate(691.795455,713.185727)"><path stroke="#191919" stroke-width="1" fill="none" d="M.0,.0L.0,-183.1"/><rect height="19.0" width="53.3" x="-25.7" fill="#ffffff" y="-174.0"/><rect height="19.0" width="101.0" x="-49.5" fill="#ffffff" y="-155.0"/><text xml:space="preserve" style="fill:#191919;font-family:Arial;font-size:12.00pt"><tspan x="-25.7" y="-158.0">server2</tspan><tspan x="-49.5" y="-139.0">192.168.16.11</tspan></text></g><g id="shape86" transform="translate(982.823715,477.757886)"><path stroke="#191919" stroke-width="1" fill="none" d="M.0,.0L34.2,.0L34.2,-142.9"/><rect height="19.0" width="96.9" x="-13.2" fill="#ffffff" y="-89.2"/><rect height="19.0" width="75.5" x="-2.5" fill="#ffffff" y="-70.2"/><text xml:space="preserve" style="fill:#191919;font-family:Arial;font-size:12.00pt"><tspan x="-13.2" y="-73.2">hostvm-mgmt</tspan><tspan x="-2.5" y="-54.2">172.16.1.1</tspan></text></g><g id="shape87" transform="translate(980.441562,519.735827)"><path stroke="#191919" stroke-width="1" fill="none" d="M.0,.0L35.9,.0L35.9,193.4"/><rect height="19.0" width="51.5" x="11.1" fill="#ffffff" y="111.2"/><rect height="19.0" width="93.3" x="-9.8" fill="#ffffff" y="130.2"/><text xml:space="preserve" style="fill:#191919;font-family:Arial;font-size:12.00pt"><tspan x="11.1" y="127.2">hostvm</tspan><tspan x="-9.8" y="146.2">192.168.16.1</tspan></text></g></g></svg>